<?xml version="1.0" encoding="UTF-8"?>
<!DOCTYPE svg PUBLIC "-//W3C//DTD SVG 1.1//EN" "http://www.w3.org/Graphics/SVG/1.1/DTD/svg11.dtd">
<!-- Creator: CorelDRAW 2019 (64-Bit) -->
<svg xmlns="http://www.w3.org/2000/svg" xml:space="preserve" width="100px" height="100px" version="1.1" style="shape-rendering:geometricPrecision; text-rendering:geometricPrecision; image-rendering:optimizeQuality; fill-rule:evenodd; clip-rule:evenodd"
viewBox="0 0 100 100"
 xmlns:xlink="http://www.w3.org/1999/xlink">
 <defs>
  <style type="text/css">
   <![CDATA[
    .fil0 {fill:#201E22}
   ]]>
  </style>
 </defs>
 <g id="Слой_x0020_1">
  <metadata id="CorelCorpID_0Corel-Layer"/>
  <g id="_1595855844304">
   <path class="fil0" d="M20.16 59.58l-4.13 -0.05 0 -20.19c5.38,-0.24 4.37,0.75 7.14,4.99 1.42,2.18 2.69,4.84 4.31,6.33l0.07 -11.42 3.79 -0.02c0.64,3.47 0.42,16.05 0.14,20.14l-3.77 -0.04c-1.37,-2.07 -6.18,-10.37 -7.55,-11.31l0 11.57zm18.42 -12.23l6.13 0.01 -0.02 4.14 -6.17 0 0.07 3.88 6.66 0.01 -0.06 4.13 -10.81 0 -0.04 -20.21 10.91 0 -0.04 4.19 -6.71 0 0.08 3.85zm41.52 -2.94c-2.01,-0.88 -3.41,-1.29 -5.53,-0.39 -0.16,4.56 11.71,2.65 9.09,11.12 -1.75,5.66 -10.38,5.62 -13.53,1.36 1.04,-1.5 1.39,-1.5 2.28,-2.55 2.67,0.78 5.68,3.31 7.38,-0.45 -1.56,-4.33 -9.98,-1.73 -9.52,-9 0.16,-2.57 2.1,-4.43 4.31,-4.98 3.27,-0.81 5.6,0.61 7.87,1.53l-2.35 3.36zm-33.06 -4.41l3.85 -1.03 2.11 10.43 3.12 -9.84 3.92 -0.1 2.77 9.83 2.39 -10.11 3.86 0.64 -3.68 19.56 -3.97 0.13c-0.44,-1.76 -1,-3.55 -1.53,-5.39 -0.51,-1.75 -0.9,-3.81 -1.88,-5.35l-3.34 10.7 -3.66 -0.02c-0.82,-1.41 -4.01,-17.39 -3.96,-19.45zm-44.54 26.26l95 0 0 -32.53 -95 0 0 32.53z"/>
   <path class="fil0" d="M50 12.41c-2.39,1.6 -9.78,11.55 -10.41,15.93l20.82 0c-0.61,-4.34 -8.05,-14.38 -10.41,-15.93z"/>
   <path class="fil0" d="M50 87.59c2.37,-1.58 9.79,-11.57 10.41,-15.93l-19.91 -0.01 -0.9 0.01c0.61,4.36 8.03,14.34 10.4,15.93z"/>
   <path class="fil0" d="M57.2 88.29c9.92,-1.38 23.77,-11.14 24.82,-16.64l-15.31 0.01c-5.98,12.06 -3.74,7.08 -9.51,16.63z"/>
   <path class="fil0" d="M42.81 88.3c-5.74,-9.5 -3.46,-4.48 -9.52,-16.59l-15.31 -0.06c1.1,5.71 14.88,15.06 24.83,16.65z"/>
   <path class="fil0" d="M33.29 28.29c1.63,-3.26 2.82,-6.17 4.49,-9.01 1.74,-2.97 3.5,-5.07 5.03,-7.58 -9.95,1.56 -23.75,10.96 -24.83,16.65l15.31 -0.06z"/>
   <path class="fil0" d="M57.2 11.7c2.92,2.83 7.54,12.64 9.51,16.63l15.31 0.01c-1.05,-5.49 -14.9,-15.25 -24.82,-16.64z"/>
  </g>
 </g>
</svg>
